<svg fill="white" width="38.381px" height="38.381px" viewBox="-6.45 0 38.381 38.381" xmlns="http://www.w3.org/2000/svg">
  <g id="Drink" transform="translate(-677.32 -276.52)">
    <g id="Group_6" data-name="Group 6">
      <g id="Group_1" data-name="Group 1">
        <path id="Path_11" data-name="Path 11" d="M698.6,287.2a.6.6,0,0,0-.6-.3H679.5a.864.864,0,0,0-.6.3,1.422,1.422,0,0,0-.2.6l3,26.4a.751.751,0,0,0,.7.7h12.5a.684.684,0,0,0,.7-.7l3-26.4C698.9,287.6,698.8,287.4,698.6,287.2Zm-1.4,1.2-2.8,24.9H683.2l-2.8-24.9Z"/>
      </g>
      <g id="Group_3" data-name="Group 3">
        <g id="Group_2" data-name="Group 2">
          <path id="Path_12" data-name="Path 12" d="M683.2,288.4a.548.548,0,0,1-.6-.4l-5.2-10.5a.671.671,0,0,1,1.2-.6l5.2,10.5a.659.659,0,0,1-.3.9A.368.368,0,0,1,683.2,288.4Z"/>
        </g>
        <path id="Path_13" data-name="Path 13" d="M698.1,283.4a4.457,4.457,0,0,0-2.6.8h0a4.367,4.367,0,0,0-1.8,3.2.707.707,0,1,0,1.4.2,2.491,2.491,0,0,1,.8-1.7l1.4,2h0l2.1,2.9a3.194,3.194,0,0,1-1.4.3.7.7,0,0,0,0,1.4h.3a4.481,4.481,0,0,0,4.5-4.5A4.807,4.807,0,0,0,698.1,283.4Zm2.3,2.4-2.1,1.2-1.4-2a2.537,2.537,0,0,1,1.2-.2A3.255,3.255,0,0,1,700.4,285.8Zm0,4.1-1.3-1.8,2-1.1a2.769,2.769,0,0,1,.1.9A3.176,3.176,0,0,1,700.4,289.9Z"/>
      </g>
      <g id="Group_5" data-name="Group 5">
        <g id="Group_4" data-name="Group 4">
          <path id="Path_14" data-name="Path 14" d="M697.9,292.1a.52.52,0,0,0-.4-.2H680.1a.758.758,0,0,0-.4.2c-.1.1-.1.2-.1.4l2.5,21.7c0,.3.2.4.5.4h12.5a.458.458,0,0,0,.5-.4l2.4-21.7C698,292.3,698,292.2,697.9,292.1Zm-13.1,3.6a.8.8,0,1,1,.8.8C685.2,296.4,684.8,296.1,684.8,295.7Zm1,14.5a.8.8,0,1,1,.8-.8A.789.789,0,0,1,685.8,310.2Zm1-7a.8.8,0,1,1,.8-.8A.736.736,0,0,1,686.8,303.2Zm3.7,2.9a.8.8,0,1,1,.8-.8A.789.789,0,0,1,690.5,306.1Zm2.1-6.8a.8.8,0,1,1,.8-.8C693.3,299,693,299.3,692.6,299.3Z"/>
        </g>
      </g>
    </g>
  </g>
</svg>
