<?xml version="1.0" encoding="iso-8859-1"***REMOVED***
<!-- Generator: Adobe Illustrator 18.1.1, SVG Export Plug-In . SVG Version: 6.00 Build 0)  -->
<svg fill="white" version="1.1" id="Capa_1" xmlns="http://www.w3.org/2000/svg" xmlns:xlink="http://www.w3.org/1999/xlink" x="0px" y="0px"
	 viewBox="0 0 340.001 340.001" style="enable-background:new 0 0 340.001 340.001;" xml:space="preserve">
<path d="M236.271,111.137c5.308-18.653-1.917-35.862-19.257-45.263c0.3-0.816,0.472-1.695,0.472-2.616V39.705
	c0-4.196-3.397-7.599-7.599-7.599H185.34c-4.671-14.162-4.538-28.638-4.536-28.798c0.017-0.872-0.321-1.715-0.938-2.334
	C179.257,0.353,178.422,0,177.545,0h-15.09c-0.877,0-1.712,0.353-2.322,0.975c-0.615,0.619-0.953,1.462-0.936,2.334
	c0.002,0.16,0.134,14.636-4.536,28.798h-24.547c-4.2,0-7.6,3.402-7.6,7.599v23.553c0,0.92,0.172,1.799,0.472,2.616
	c-17.335,9.401-24.55,26.609-19.256,45.263c14.239,59.062,14.239,117.087,0,176.15c-7.996,28.096,12.417,52.941,53.064,52.712
	c10.56,0,15.841,0,26.41,0c40.647,0.233,61.064-24.614,53.066-52.712C222.022,228.229,222.03,170.196,236.271,111.137z
	 M171.066,237.959c-28.386,0-27.773-22.684-27.062-28.043c0.569-4.258,2.251-8.17,3.647-12.178
	c1.921-5.504,3.418-11.106,3.153-17.019c-0.099-2.253-0.45-4.458-1.638-6.439c-0.1-0.163-0.094-0.394-0.193-0.874
	c3.592,1.825,6.323,4.215,8.375,7.383c2.07,3.195,2.845,6.727,2.465,10.662c13.968-9.516,4.52-30.99,4.52-30.99
	s5.658,0.637,9.375,4.852c4.518,5.119,5.645,11.232,5.556,17.637c-0.059,4.088-0.022,15.577,3.977,20.073
	c-1.496-8.95-0.578-16.896,7.236-22.48c0.131,0.031-2.792,8.197,2.269,18.457C198.263,210.189,200.905,237.959,171.066,237.959z"/>
<g>
</g>
<g>
</g>
<g>
</g>
<g>
</g>
<g>
</g>
<g>
</g>
<g>
</g>
<g>
</g>
<g>
</g>
<g>
</g>
<g>
</g>
<g>
</g>
<g>
</g>
<g>
</g>
<g>
</g>
</svg>
