<svg id="Layer_1" data-name="Layer 1" xmlns="http://www.w3.org/2000/svg" viewBox="0 0 300 300"><defs><style>.cls-1,.cls-3{fill:#e6e6e6;}.cls-1,.cls-2,.cls-3,.cls-4,.cls-5,.cls-6{stroke:#4d4d4d;stroke-width:3px;}.cls-1,.cls-2,.cls-5{stroke-linecap:round;stroke-linejoin:round;}.cls-2{fill:none;}.cls-3,.cls-4,.cls-6{stroke-miterlimit:10;}.cls-6{fill:#fff;}.cls-7{fill:#ffb373;}.cls-8{fill:#a20098;}.cls-9{fill:#73d7ff;}.cls-10{fill:#00e729;}</style></defs><path class="cls-1" d="M226,62.19a96.15,96.15,0,0,1,13.64,24"/><path class="cls-1" d="M227.62,53.27a103.43,103.43,0,0,1,13.83,20.19"/><path class="cls-1" d="M216.5,65A87.48,87.48,0,0,1,228,82.5"/><circle class="cls-1" cx="206.24" cy="39.24" r="20.48"/><path class="cls-2" d="M193.85,30.2a15.39,15.39,0,0,1,7-5.3"/><path class="cls-2" d="M191,37.54a15.27,15.27,0,0,1,2.85-7.34"/><path class="cls-2" d="M204.33,54.45a15.34,15.34,0,0,1-12-8.83"/><path class="cls-2" d="M220.18,45.62a15.4,15.4,0,0,1-7.77,7.65"/><path class="cls-2" d="M217.1,28.43a15.36,15.36,0,0,1,4,6.87"/><path class="cls-2" d="M203.33,30.35a9.36,9.36,0,0,1,6.4.22"/><path class="cls-2" d="M197.55,42.68a9.16,9.16,0,0,1-.66-3.44,9.36,9.36,0,0,1,1.69-5.37"/><path class="cls-2" d="M208.37,48.34a9.4,9.4,0,0,1-2.13.24,9.29,9.29,0,0,1-5.31-1.65"/><path class="cls-2" d="M215.58,39.24a9.34,9.34,0,0,1-1.39,4.91"/><path class="cls-3" d="M59.29,89l2.6-9.18-9.17-2.59a5.52,5.52,0,0,1-10.62-3l-9.18-2.6-2.6,9.18a5.52,5.52,0,0,1-3,10.62l-2.6,9.17,9.18,2.6a5.52,5.52,0,1,1,10.62,3l9.17,2.59,2.6-9.17a5.52,5.52,0,0,1,3-10.62ZM42.51,93a2.91,2.91,0,1,1,3.6-2A2.9,2.9,0,0,1,42.51,93Z"/><path class="cls-1" d="M203.7,40.66a2.91,2.91,0,1,1,4,1.12A2.92,2.92,0,0,1,203.7,40.66Z"/><path class="cls-4" d="M86.13,188.12c-18.58-14.84-29.52-33.67-32.55-56.61l16.73-22.72c9.65,20.55,26.41,28.87,46,33.67"/><path class="cls-4" d="M215.9,188.06c18.58-14.85,29.52-33.67,32.55-56.62l-16.73-22.72c-9.65,20.55-26.41,28.88-46,33.67"/><rect class="cls-5" x="104.72" y="231.44" width="40" height="49.07" transform="translate(249.44 511.94) rotate(-180)"/><path d="M80.14,275.88a25.13,25.13,0,0,0,.42,4.62H130.8a25.13,25.13,0,0,0,.42-4.62,25.54,25.54,0,0,0-51.08,0Z"/><path class="cls-2" d="M125.38,259.62a26.26,26.26,0,0,0-2.8-2.88"/><path class="cls-2" d="M117.28,253.12a25.55,25.55,0,0,0-37.14,22.76,25.13,25.13,0,0,0,.42,4.62H130.8a25.13,25.13,0,0,0,.42-4.62,25.83,25.83,0,0,0-.82-6.44"/><rect class="cls-5" x="157.31" y="231.44" width="40" height="49.07"/><path d="M221.89,275.88a25.13,25.13,0,0,1-.42,4.62H171.23a25.13,25.13,0,0,1-.42-4.62,25.54,25.54,0,0,1,51.08,0Z"/><path class="cls-2" d="M176.65,259.62a26.26,26.26,0,0,1,2.8-2.88"/><path class="cls-2" d="M184.75,253.12a25.55,25.55,0,0,1,37.14,22.76,25.13,25.13,0,0,1-.42,4.62H171.23a25.67,25.67,0,0,1,.4-11.06"/><path class="cls-5" d="M216.49,197.89v45.24h-131V197.89a65.48,65.48,0,0,1,131,0Z"/><path class="cls-4" d="M151,173.73H165.4c7.08,0,20.35-15.77,20.35-20.35V132.11A34.74,34.74,0,0,0,151,97.37h0a34.73,34.73,0,0,0-34.73,34.74v21.27c0,4.58,13.26,20.35,20.34,20.35Z"/><path class="cls-6" d="M151,145.59c7.56,0,20.45,2.7,25.1,3.73a2,2,0,0,0,2.34-1.35A35.49,35.49,0,0,0,180,132.34a77.54,77.54,0,0,0-57.95,0A35.31,35.31,0,0,0,123.58,148a2,2,0,0,0,2.34,1.35C130.56,148.29,143.46,145.59,151,145.59Z"/><path d="M126.71,134.59c-.08,3.95,1.38,6.33,4.75,6.77,4.6-4.55,9.62-3.73,15,1.94a6.06,6.06,0,0,0,3.35-5.83C142.94,128.63,135.14,128.57,126.71,134.59Z"/><path d="M153.79,137.24a7.36,7.36,0,0,0,2.25,5.6c6.35-2.46,12.12-3.79,17-3.27,2.39-1.86,3.07-4.09,1.4-6.85A30.33,30.33,0,0,0,153.79,137.24Z"/><circle class="cls-4" cx="55.81" cy="112.54" r="17.65"/><path class="cls-4" d="M43.33,100.06a9.2,9.2,0,0,0,13,13"/><path class="cls-4" d="M59.08,121.26a5.46,5.46,0,1,1,0-10.92"/><circle class="cls-4" cx="246.21" cy="112.54" r="17.65"/><path class="cls-4" d="M258.69,100.06a9.2,9.2,0,0,1-13,13"/><path class="cls-4" d="M243,121.26a5.46,5.46,0,1,0,0-10.92"/><path class="cls-7" d="M58.28,206.14a2.17,2.17,0,0,1-1.36,2.76,5.84,5.84,0,0,1-1.45.33c-2.54.21-6.11-.86-7.33-3.95a11.93,11.93,0,0,1-.54-5.5,7.77,7.77,0,0,0-.42-3.68c-.39-1.07-1.21-1.53-2.93-2-1.12-.3-2-.59-2.4-1.75s.07-1.89.72-2.88a4.1,4.1,0,0,0,.76-4,7.35,7.35,0,0,0-1.83-2.67,12.73,12.73,0,0,1-3.16-4.55c-1.15-3.16,1-6.25,3.12-7.79a5.94,5.94,0,0,1,1.32-.68,2.18,2.18,0,0,1,2.82,1.25c.34.93.09,1.63-.79,2.55-1,1.08-1.56,2.23-1.2,3.21a6.5,6.5,0,0,0,1.6,2.19,12.38,12.38,0,0,1,3.29,4.61,6.8,6.8,0,0,1-1.13,6.61,7,7,0,0,1,5.14,4.44,11.76,11.76,0,0,1,.4,5.55,6.31,6.31,0,0,0,.21,2.8c.34.94,1.6,1.49,2.92,1.66S57.94,205.2,58.28,206.14Z"/><path class="cls-8" d="M161.27,49.42a1.21,1.21,0,0,1-1.66.44,3.44,3.44,0,0,1-.67-.49,4,4,0,0,1-1-4.53A6.64,6.64,0,0,1,160,42.6a4.38,4.38,0,0,0,1.39-1.52c.31-.56.2-1.07-.25-2a1.61,1.61,0,0,1-.14-1.65c.31-.55.82-.66,1.48-.75a2.27,2.27,0,0,0,2-1.14,4.07,4.07,0,0,0,.46-1.75,7,7,0,0,1,.76-3c.91-1.64,3-1.89,4.42-1.54a2.8,2.8,0,0,1,.76.31,1.2,1.2,0,0,1,.51,1.64c-.27.49-.65.63-1.36.6a1.85,1.85,0,0,0-1.79.67A3.55,3.55,0,0,0,167.9,34a6.74,6.74,0,0,1-.74,3.06A3.8,3.8,0,0,1,164,39a3.9,3.9,0,0,1,0,3.78A6.58,6.58,0,0,1,161.79,45a3.57,3.57,0,0,0-1.1,1.11,1.92,1.92,0,0,0,.37,1.83C161.44,48.52,161.54,48.94,161.27,49.42Z"/><path class="cls-9" d="M92,76.57l20.45-12.2a1.73,1.73,0,0,1,2.37.62l2.67,4.47a1.71,1.71,0,1,1-2.94,1.76l-1.72-2.86L95.35,78.8l1.71,2.87a1.7,1.7,0,0,1-.6,2.35,1.73,1.73,0,0,1-2.38-.57L91.41,79A1.76,1.76,0,0,1,92,76.57Z"/><path class="cls-10" d="M190.32,84.76l10.24,16.52a1.42,1.42,0,0,1-.48,2l-3.61,2.24a1.4,1.4,0,1,1-1.48-2.38l2.32-1.44-8.76-14.14L186.23,89a1.4,1.4,0,0,1-1.93-.46,1.42,1.42,0,0,1,.44-1.95l3.62-2.24A1.44,1.44,0,0,1,190.32,84.76Z"/><path class="cls-8" d="M23.32,164.85,19.68,178a1,1,0,0,1-1.23.68l-2.88-.8A1,1,0,0,1,16.1,176l1.84.51,3.12-11.25-1.84-.51a1,1,0,0,1-.69-1.21,1,1,0,0,1,1.21-.7l2.88.8A1,1,0,0,1,23.32,164.85Z"/><path class="cls-9" d="M23,138.76a1.87,1.87,0,0,1-2,1.7,2.22,2.22,0,0,1-1.05-.41l-6-4.22a2.29,2.29,0,0,1-1-2A2.32,2.32,0,0,1,14.24,132L20.89,129a2.21,2.21,0,0,1,1.12-.21,1.85,1.85,0,0,1,1.69,2,1.81,1.81,0,0,1-1,1.53l-4.39,2,3.77,2.64A1.9,1.9,0,0,1,23,138.76Z"/><path class="cls-7" d="M90.71,27a1.28,1.28,0,0,1-1.81.24,1.53,1.53,0,0,1-.47-.63L86.5,22a1.55,1.55,0,0,1,.17-1.52,1.63,1.63,0,0,1,1.44-.58l5,.67a1.55,1.55,0,0,1,.72.28,1.27,1.27,0,0,1,.25,1.8,1.22,1.22,0,0,1-1.15.52l-3.31-.44,1.23,2.93A1.31,1.31,0,0,1,90.71,27Z"/><path class="cls-7" d="M263.42,64.43a1.31,1.31,0,0,1,.1-.36L272.39,44a1.28,1.28,0,0,1,2.42.73,1.58,1.58,0,0,1-.14.45L265.82,65.1a1.2,1.2,0,0,1-1.31.74A1.26,1.26,0,0,1,263.42,64.43Z"/><path class="cls-7" d="M286,56a2,2,0,0,1-1.25,1.54l-6,2.4a2,2,0,0,1-1,.13,1.62,1.62,0,0,1-1.4-1.85,1.59,1.59,0,0,1,1-1.31l4-1.58-3.21-2.52a1.66,1.66,0,0,1-.71-1.66,1.64,1.64,0,0,1,1.88-1.4,2.1,2.1,0,0,1,.92.41l5.09,4A2,2,0,0,1,286,56Z"/><path class="cls-10" d="M68.14,237.72a1,1,0,0,1-.14-.22l-6-13.65a.87.87,0,0,1,.25-1,.86.86,0,0,1,1.22.13,1.05,1.05,0,0,1,.17.28l6,13.58a.82.82,0,0,1-.23,1A.85.85,0,0,1,68.14,237.72Z"/><path class="cls-10" d="M74.26,222.49a1.41,1.41,0,0,1,.2,1.34L72.9,228a1.22,1.22,0,0,1-.39.56,1.1,1.1,0,0,1-1.57-.14,1.08,1.08,0,0,1-.22-1.09l1-2.72L69,225a1.16,1.16,0,0,1-1.16-.4A1.12,1.12,0,0,1,68,223a1.31,1.31,0,0,1,.63-.27l4.36-.72A1.35,1.35,0,0,1,74.26,222.49Z"/><path class="cls-8" d="M258.61,157.49a2.26,2.26,0,0,1,.42-1.11l.94-1.49-2.12.2a1.53,1.53,0,0,1-1.7-1.56,1.56,1.56,0,0,1,1.59-1.53,1.94,1.94,0,0,1,.66.11l1.74.45-.83-1.88a1.57,1.57,0,0,1-.14-.76,1.55,1.55,0,0,1,1.56-1.53,1.6,1.6,0,0,1,1.56,1.53l.14,2.08,1.57-1.35a1.7,1.7,0,0,1,1.11-.45,1.55,1.55,0,0,1,1.52,1.59,1.53,1.53,0,0,1-1,1.46l-1.91.77,1.84,1.07a1.56,1.56,0,0,1,.77,1.32,1.53,1.53,0,0,1-1.53,1.57,1.76,1.76,0,0,1-1.46-.8l-1.15-1.39-.48,2.15a1.48,1.48,0,0,1-1.46,1.08A1.56,1.56,0,0,1,258.61,157.49Z"/><path class="cls-10" d="M8.34,46.59a4.83,4.83,0,0,1,1.9-1.54l3.22-1.68-4-1.83A3.16,3.16,0,0,1,8.09,37a3.2,3.2,0,0,1,4.42-1.05,4,4,0,0,1,1.07.87l2.61,2.61.48-4.2a3.31,3.31,0,0,1,.54-1.5,3.2,3.2,0,0,1,4.37-1.09A3.29,3.29,0,0,1,22.77,37l-1.93,3.85L25,40a3.53,3.53,0,0,1,2.45.35,3.21,3.21,0,0,1,1.05,4.43,3.16,3.16,0,0,1-3.37,1.51L21,45.7l2.15,3.83a3.19,3.19,0,0,1-4.36,4.32A3.61,3.61,0,0,1,17,50.92l-.59-3.66-3.1,3.32A3,3,0,0,1,9.59,51,3.21,3.21,0,0,1,8.34,46.59Z"/><path class="cls-7" d="M285.78,120.33a4.85,4.85,0,0,0-.18,2.08,8,8,0,0,1-.27,3.57c-.71,2.06-3,2.74-4.74,2.63a3.55,3.55,0,0,1-.94-.19,1.41,1.41,0,0,1-.9-1.78c.21-.61.62-.85,1.43-1s1.7-.48,1.92-1.12a4.19,4.19,0,0,0,.09-1.75,8,8,0,0,1,.23-3.65,4.42,4.42,0,0,1,3.27-2.85,4.5,4.5,0,0,1-.76-4.32A7.55,7.55,0,0,1,287,109a4.07,4.07,0,0,0,1-1.48,2.26,2.26,0,0,0-.79-2c-.54-.58-.74-1-.53-1.64a1.41,1.41,0,0,1,1.82-.83,3.4,3.4,0,0,1,.85.43c1.36.93,2.71,2.92,2.07,5a7.82,7.82,0,0,1-2,3,5,5,0,0,0-1.29,2c-.24.69,0,1.26.67,2.18a1.87,1.87,0,0,1,.49,1.86c-.25.69-.81.91-1.54,1.15A2.62,2.62,0,0,0,285.78,120.33Z"/><path class="cls-9" d="M249.16,208.15a5.57,5.57,0,0,0-.2,2.45,9.82,9.82,0,0,1-.32,4.19c-.84,2.41-3.56,3.21-5.57,3.08a4.18,4.18,0,0,1-1.1-.23,1.65,1.65,0,0,1-1.07-2.08c.25-.72.73-1,1.69-1.13,1.12-.14,2-.56,2.25-1.31a4.94,4.94,0,0,0,.11-2.06,9.22,9.22,0,0,1,.27-4.28,5.16,5.16,0,0,1,3.83-3.35,5.3,5.3,0,0,1-.89-5.07,8.86,8.86,0,0,1,2.42-3.46,4.73,4.73,0,0,0,1.22-1.75,2.62,2.62,0,0,0-.92-2.37c-.64-.68-.87-1.22-.62-1.93a1.65,1.65,0,0,1,2.13-1,4.73,4.73,0,0,1,1,.51c1.6,1.09,3.18,3.43,2.42,5.83a8.91,8.91,0,0,1-2.32,3.49,5.8,5.8,0,0,0-1.51,2.37c-.29.82,0,1.48.78,2.56a2.21,2.21,0,0,1,.58,2.18c-.29.81-1,1.08-1.81,1.35A3.11,3.11,0,0,0,249.16,208.15Z"/></svg>